<?xml version="1.0" encoding="UTF-8" standalone="no"?>
<!-- Created with Inkscape (http://www.inkscape.org/) -->

<svg
   version="1.1"
   id="svg1"
   width="502"
   height="502"
   viewBox="0 0 502 502"
   sodipodi:docname="icon.jpeg"
   xml:space="preserve"
   xmlns:inkscape="http://www.inkscape.org/namespaces/inkscape"
   xmlns:sodipodi="http://sodipodi.sourceforge.net/DTD/sodipodi-0.dtd"
   xmlns="http://www.w3.org/2000/svg"
   xmlns:svg="http://www.w3.org/2000/svg"><defs
     id="defs1" /><sodipodi:namedview
     id="namedview1"
     pagecolor="#ffffff"
     bordercolor="#000000"
     borderopacity="0.25"
     inkscape:showpageshadow="2"
     inkscape:pageopacity="0.0"
     inkscape:pagecheckerboard="0"
     inkscape:deskcolor="#d1d1d1" /><g
     inkscape:groupmode="layer"
     inkscape:label="Image"
     id="g1"><path
       style="fill:#fd9b90;fill-opacity:1;stroke-width:1.00043"
       d="m 157.16633,186.76005 10.46068,-0.15495 c 12.7383,-29.51206 39.29315,-46.99503 78.9231,-50.57271 32.68025,0.25712 61.78532,12.28939 82.95788,50.4479 l 10.6949,-0.0391 -0.0631,117.35768 -10.42876,0.10819 c -15.39214,36.44172 -43.85197,52.05066 -81.72005,53.24744 -37.77731,-2.25195 -65.73917,-19.08432 -80.8939,-54.30898 l -10.5288,0.047 z"
       id="path8"
       sodipodi:nodetypes="ccccccccccc" /><path
       style="fill:#000000"
       d="m 48.093347,227.10256 c 0.0057,-2.168 -0.464123,-4.01407 -3.695944,-3.98999 l -17.411135,0.17587 c -24.3183299,0.24564 -22.0767404,45.52575 0.879745,44.88976 l 17.733394,0.0535 c 1.382411,0.0276 2.818946,-0.37348 2.808165,-2.3676 z"
       id="path1"
       sodipodi:nodetypes="ccssccc" /><path
       style="fill:#000000"
       d="m 59.949114,174.57095 c 0.106968,-22.27306 41.983366,-21.97594 42.050046,-0.0846 0.14353,47.12563 0.28707,94.25127 0.4306,141.3769 0.0647,21.23706 -43.260584,21.10715 -43.158457,-0.15792 z"
       id="path2"
       sodipodi:nodetypes="sssss" /><path
       style="fill:#000000"
       d="m 113.22307,141.11605 c -0.60681,-26.083 44.3813,-26.65046 44.28658,-1.73608 l -0.81672,214.82042 c -0.0971,25.54002 -43.43753,25.42577 -43.44084,0.97837 l -0.029,-214.06271 c 0,-1e-5 -2e-5,0 -2e-5,0 z"
       id="path3"
       sodipodi:nodetypes="ssssss" /><path
       style="fill:#000000"
       d="m 168.62184,262.44359 3e-4,-35.11788 c 0.80168,-2.5938 2.63381,-3.76206 5.286,-3.89365 l 150.36976,0.0992 c 1.80942,0.09 3.93267,1.36847 4.66533,3.6874 l 0.009,35.46844 c -0.51566,1.77819 -1.85743,3.13203 -4.28015,3.71892 l -150.66169,-0.25058 c -1.88729,-0.2283 -4.41467,-0.88393 -5.38855,-3.71185 z"
       id="path4"
       sodipodi:nodetypes="ccccccccc" /><path
       style="fill:#000000"
       d="m 340.25723,138.90336 c -0.33112,-24.45736 42.95854,-23.60407 42.91465,-1.10301 l -0.0821,214.94001 c 0.50557,26.27932 -43.1561,26.79187 -43.27294,2.17686 z"
       id="path5"
       sodipodi:nodetypes="ccccc" /><path
       style="fill:#000000"
       d="m 394.87893,174.6531 c 0.0186,-23.00825 42.74175,-21.09621 42.7103,-0.25373 l -0.2125,140.83991 c -0.0357,23.68347 -42.63093,24.22262 -42.61202,0.80941 z"
       id="path6"
       sodipodi:nodetypes="sssss" /><path
       style="fill:#000000"
       d="m 448.12183,225.4154 c -5.9e-4,-0.85875 1.39492,-2.1989 2.83141,-2.20101 l 20.65397,-0.0303 c 21.09197,-0.031 20.78805,44.10122 -0.23448,44.41144 l -19.42311,0.28662 c -1.92094,0.0283 -3.79918,-1.21748 -3.79992,-2.28008 z"
       id="path7"
       sodipodi:nodetypes="sssssss" /></g></svg>
